<?xml version="1.0" encoding="UTF-8"?><svg id="Layer_1" xmlns="http://www.w3.org/2000/svg" viewBox="0 0 213.11 212.95"><defs><style>.cls-1{fill:#0292b3;}.cls-2{fill:#00334d;}</style></defs><g id="Layer_1-2"><path class="cls-2" d="M208.81,102.62l-51.31-51.56c-5.87-5.87-15.06-5.87-20.93,0h0l-5.36,5.36c2.55,4.59,4.34,9.7,5.36,14.81l5.11-5.11c2.3-2.3,5.87-2.3,8.17,0h0l43.91,43.91c2.3,2.3,2.3,5.87,0,8.17h0l-75.05,75.3c-2.3,2.3-5.87,2.3-8.17,0l-44.16-44.16c-2.3-2.3-2.3-5.87,0-8.17h0l3.83-3.83c-5.11-1.02-10.21-2.81-14.81-5.36l-4.34,4.08c-5.87,5.87-5.87,15.06,0,20.93h0l51.56,51.56c5.87,5.87,15.06,5.87,20.93,0h0l85.26-85c5.62-5.87,5.87-15.06,0-20.93h0Z"/><path class="cls-1" d="M128.14,82.45c0-25.53-20.68-46.2-46.2-46.2s-46.2,20.68-46.2,46.2,20.68,46.2,46.2,46.2,46.2-20.68,46.2-46.2h0ZM43.14,82.45c0-21.44,17.36-38.8,38.8-38.8s38.8,17.36,38.8,38.8-17.36,38.8-38.8,38.8h0c-21.44-.26-38.54-17.36-38.8-38.8Z"/><path class="cls-1" d="M78.37,25.27c2.3,0,4.08-1.79,4.08-4.08s-1.79-4.08-4.08-4.08c-33.95,0-61.26,27.31-61.26,61.26-.26,2.3,1.53,4.08,3.57,4.34,2.3.26,4.34-1.28,4.34-3.57v-.77c0-29.36,23.99-53.09,53.35-53.09h0Z"/><path class="cls-1" d="M74.79,7.91c2.3-.26,3.83-2.04,3.57-4.34,0-1.79-1.79-3.32-3.57-3.57C33.44,0,0,33.44,0,74.79h0c0,2.3,1.79,4.08,4.08,4.08s4.08-1.79,4.08-4.08C8.17,37.78,37.78,8.17,74.79,7.91Z"/><path class="cls-2" d="M102.87,82.2v-1.02c0-1.28-1.02-2.3-2.3-2.3h-1.79v-11.49c0-5.11-4.08-9.19-9.19-9.19h-17.1c-5.11,0-9.19,4.08-9.19,9.19v11.74h-1.02c-1.28,0-2.3,1.02-2.3,2.3h0v1.02h-1.02v21.7h1.02v.26c0,1.28,1.02,2.3,2.3,2.3h38.29c1.28,0,2.3-1.02,2.3-2.3h0v-.26h.77v-21.7h-.77v-.26ZM91.13,79.13h-20.17v-11.49c0-.77.77-1.53,1.53-1.53h17.1c.77,0,1.53.77,1.53,1.53v11.49Z"/><path class="cls-1" d="M147.29,77.86l-8.42,8.42c-2.3,28.33-24.76,50.8-53.09,52.84l-7.15,7.15,36.76,36.76,68.92-68.67-37.01-36.5Z"/></g></svg>